<svg width="160" height="34" viewBox="0 0 160 34" fill="none" xmlns="http://www.w3.org/2000/svg">
<path d="M10.2851 10.3695L10.4004 5.18475H3.17036C1.41637 5.18475 0 6.61388 0 8.38368V18.3627L9.64282 11.5743C10.0381 11.3001 10.2769 10.8514 10.2851 10.3695Z" fill="#3A26F9"/>
<path d="M12.1379 13.4521L11.6933 13.045C11.1992 12.5963 10.4581 12.5464 9.90633 12.937L0.00823488 19.9081V30.8011C0.00823488 32.5709 1.4246 34 3.17859 34H14.6166L12.6155 14.391C12.5826 14.0337 12.4097 13.7014 12.1462 13.4604L12.1379 13.4521Z" fill="#D4CFFF"/>
<path d="M14.0566 16.1608L15.8765 33.9917H25.3875C27.1415 33.9917 28.5579 32.5626 28.5579 30.7928V19.6422L15.4895 15.0225C14.7401 14.7566 13.9743 15.3715 14.0566 16.1608Z" fill="#927EFF"/>
<path d="M25.3875 5.18475H11.6603L11.5368 10.4941C11.5286 10.9428 11.7097 11.3666 12.0391 11.6657L13.2496 12.7625C13.3978 12.8954 13.5708 13.0034 13.7602 13.0699L28.5497 18.3045V8.38368C28.5497 6.61388 27.1333 5.18475 25.3793 5.18475H25.3875Z" fill="#162F52"/>
<path d="M58.7627 30.2693H49.9599V29.2307C50.2316 29.0645 50.5692 28.89 50.9645 28.7155C51.3598 28.5327 51.8374 28.3749 52.3809 28.2419V18.6535C52.3809 17.5484 52.3315 16.5513 52.2409 15.6623C52.1421 14.7732 51.9691 14.0337 51.7056 13.4438C51.4421 12.8456 51.0633 12.3886 50.5692 12.0728C50.0751 11.7571 49.4328 11.5992 48.6341 11.5992C48.0329 11.5992 47.473 11.7239 46.9707 11.9731C46.4601 12.2224 46.0072 12.5547 45.6119 12.9702C45.2167 13.3856 44.8708 13.8592 44.5826 14.3827C44.2944 14.9062 44.0721 15.4629 43.8991 16.0445V28.2502C44.3356 28.3915 44.7555 28.5327 45.1508 28.6823C45.5461 28.8319 45.9413 29.023 46.3201 29.239V30.2776H37.4678V29.239C37.8549 29.0479 38.2748 28.8651 38.7442 28.6989C39.2136 28.5327 39.6912 28.3832 40.1853 28.2419V11.9233L37.4678 11.5909V10.5108C38.3489 10.1202 39.2465 9.81281 40.1606 9.58016C41.0829 9.34751 41.9804 9.1564 42.8533 9.02346H43.8827V13.718H43.9238C44.3603 12.4135 45.1096 11.3084 46.1637 10.3944C47.2177 9.48045 48.527 9.02346 50.0916 9.02346C50.7504 9.02346 51.3845 9.08993 51.9856 9.23118C52.5867 9.37243 53.1549 9.6217 53.6737 9.9956C54.1925 10.3695 54.6372 10.8847 54.9913 11.5494C55.3453 12.2141 55.6089 13.0699 55.7735 14.1251C56.2676 12.6046 57.0664 11.3749 58.1616 10.4277C59.2568 9.48876 60.632 9.01515 62.279 9.01515C63.2918 9.01515 64.1812 9.14809 64.9305 9.40567C65.6881 9.67155 66.3057 10.1285 66.7998 10.7933C67.2939 11.458 67.6562 12.3553 67.8868 13.4936C68.1173 14.632 68.2326 16.0694 68.2326 17.8143V28.2336C69.1632 28.3998 70.069 28.7322 70.9501 29.2307V30.2693H62.106V29.2307C62.9295 28.7903 63.7365 28.458 64.5353 28.2336V17.8974C64.5353 16.9003 64.4858 16.0112 64.3953 15.2385C64.2964 14.4658 64.1153 13.8094 63.8435 13.2693C63.5718 12.7292 63.1848 12.3138 62.6907 12.023C62.1966 11.7322 61.5378 11.5909 60.7144 11.5909C59.3968 11.5909 58.3757 12.0479 57.6511 12.9619C56.9264 13.8759 56.3994 15.0391 56.07 16.4516V28.2419C57.0335 28.5161 57.9228 28.8485 58.7463 29.239V30.2776L58.7627 30.2693Z" fill="#162F52"/>
<path d="M72.4241 19.8915C72.4241 18.1466 72.6464 16.6012 73.0993 15.2634C73.5522 13.9174 74.2028 12.7874 75.051 11.8568C75.8991 10.9262 76.9202 10.2199 78.1143 9.73803C79.3083 9.25611 80.6341 9.01515 82.0834 9.01515C83.788 9.01515 85.2537 9.28104 86.4889 9.8045C87.7241 10.328 88.7288 11.0674 89.5111 12.023C90.2934 12.9785 90.8698 14.1168 91.2404 15.4462C91.6109 16.7757 91.7921 18.2546 91.7921 19.8915C91.7921 23.3812 90.911 26.065 89.157 27.9428C87.403 29.8289 85.0396 30.7678 82.0751 30.7678C80.4282 30.7678 79.0036 30.5103 77.7931 30.0034C76.5826 29.4883 75.5862 28.7571 74.7874 27.8016C73.9887 26.846 73.3958 25.6994 73.0005 24.3534C72.6053 23.0073 72.4076 21.52 72.4076 19.8915H72.4241ZM76.3767 19.8915C76.3767 21.1378 76.492 22.3177 76.7226 23.4228C76.9532 24.5279 77.3237 25.4917 77.8343 26.306C78.3448 27.1202 79.0036 27.7683 79.8271 28.2336C80.6506 28.7072 81.6387 28.9399 82.7916 28.9399C84.2738 28.9399 85.4843 28.2087 86.4313 26.738C87.3783 25.2674 87.8477 22.9907 87.8477 19.8832C87.8477 18.6119 87.7324 17.4238 87.5018 16.3353C87.2712 15.2385 86.9089 14.283 86.4148 13.4687C85.9207 12.6544 85.2867 12.0064 84.5209 11.5411C83.755 11.0674 82.8327 10.8348 81.7622 10.8348C80.14 10.8348 78.8389 11.566 77.8508 13.0367C76.8626 14.5073 76.3685 16.7923 76.3685 19.8915H76.3767Z" fill="#162F52"/>
<path d="M104.523 25.5415C104.523 24.7688 104.284 24.1124 103.806 23.5723C103.329 23.0323 102.72 22.5254 101.978 22.0601C101.237 21.5865 100.447 21.1295 99.615 20.6891C98.7751 20.2488 97.9928 19.7253 97.2517 19.1354C96.5106 18.5371 95.9012 17.8558 95.4236 17.0831C94.946 16.3104 94.7072 15.3548 94.7072 14.2165C94.7072 13.4687 94.8801 12.7791 95.2177 12.1393C95.5636 11.4995 96.0165 10.9594 96.5929 10.5024C97.1693 10.0455 97.8446 9.68817 98.6104 9.42229C99.3762 9.1564 100.2 9.03177 101.081 9.03177C102.563 9.03177 103.774 9.11486 104.721 9.28104C105.668 9.44722 106.582 9.67986 107.454 9.98729C107.347 10.8763 107.216 11.7654 107.067 12.6628C106.919 13.5601 106.705 14.4824 106.433 15.4213H105.404L103.839 11.1838C103.51 11.0425 103.139 10.9594 102.728 10.9179C102.316 10.8763 101.888 10.8514 101.451 10.8514C100.957 10.8514 100.529 10.9428 100.159 11.1173C99.788 11.3001 99.4751 11.5244 99.2115 11.7986C98.948 12.0728 98.7504 12.3969 98.6186 12.7542C98.4787 13.1114 98.4128 13.477 98.4128 13.8343C98.4128 14.5821 98.6516 15.2219 99.1374 15.762C99.615 16.3021 100.224 16.8006 100.966 17.2576C101.707 17.7146 102.497 18.1632 103.329 18.6036C104.169 19.044 104.951 19.5425 105.692 20.0992C106.433 20.6559 107.043 21.2957 107.52 22.0269C107.998 22.7581 108.245 23.6388 108.245 24.6608C108.245 25.5997 108.047 26.4472 107.652 27.195C107.257 27.9428 106.705 28.5826 106.005 29.1061C105.305 29.6295 104.498 30.0367 103.576 30.3275C102.654 30.6183 101.674 30.7595 100.636 30.7595C99.4586 30.7595 98.3716 30.6598 97.3834 30.4521C96.3953 30.2444 95.3659 29.9453 94.2954 29.563C94.3531 28.566 94.4766 27.6021 94.666 26.6799C94.8554 25.7493 95.1024 24.8602 95.4071 24.0044H96.4364L98.2481 28.5327C98.5528 28.7571 98.9151 28.8817 99.3351 28.9066C99.7633 28.9316 100.15 28.9482 100.504 28.9482C101.715 28.9482 102.687 28.6158 103.428 27.9511C104.169 27.2864 104.539 26.4804 104.539 25.5415H104.523Z" fill="#162F52"/>
<path d="M126.74 24.8353C126.74 25.4418 126.757 25.9736 126.781 26.414C126.806 26.8543 126.839 27.328 126.864 27.8265L129.705 28.2419V29.1144C129.021 29.4717 128.255 29.7957 127.424 30.0699C126.584 30.3441 125.785 30.5518 125.019 30.6931H123.99C123.718 30.0533 123.553 29.3553 123.496 28.5992C123.438 27.8348 123.397 27.0039 123.372 26.0899H123.166C123.059 26.6466 122.845 27.2033 122.532 27.7683C122.219 28.3333 121.808 28.8402 121.297 29.2805C120.786 29.7209 120.194 30.0865 119.51 30.3607C118.827 30.6349 118.044 30.7761 117.163 30.7761C115.492 30.7761 114.125 30.261 113.071 29.239C112.016 28.217 111.489 26.871 111.489 25.2092C111.489 23.9379 111.745 22.891 112.247 22.0767C112.758 21.2625 113.499 20.6144 114.487 20.1491C115.475 19.6755 116.694 19.3431 118.151 19.1354C119.601 18.9277 121.289 18.7698 123.216 18.6618C123.323 17.4736 123.356 16.4018 123.314 15.4462C123.273 14.4907 123.125 13.6764 122.862 12.9951C122.598 12.3138 122.219 11.7903 121.709 11.4164C121.198 11.0425 120.539 10.8597 119.716 10.8597C119.329 10.8597 118.901 10.8763 118.423 10.9262C117.945 10.9677 117.468 11.0841 117.007 11.2752L115.072 16.2605H114.001C113.729 15.4296 113.49 14.5738 113.285 13.6848C113.079 12.7957 112.947 11.9233 112.898 11.0674C113.943 10.4277 115.096 9.92913 116.373 9.57185C117.649 9.21457 119.065 9.03177 120.63 9.03177C122.03 9.03177 123.15 9.23118 123.981 9.63001C124.821 10.0288 125.455 10.5523 125.892 11.1838C126.328 11.8236 126.617 12.5298 126.757 13.3025C126.897 14.0753 126.962 14.8563 126.962 15.629C126.962 17.2908 126.93 18.8861 126.864 20.4233C126.798 21.9604 126.765 23.4311 126.765 24.8436L126.74 24.8353ZM118.802 28.2004C119.485 28.2004 120.095 28.0591 120.613 27.7849C121.132 27.5108 121.577 27.1784 121.931 26.7879C122.285 26.3974 122.573 26.0068 122.796 25.608C123.018 25.2092 123.166 24.8685 123.249 24.5943V20.2322C121.659 20.2322 120.35 20.3153 119.337 20.4814C118.324 20.6476 117.525 20.9135 116.949 21.2708C116.373 21.6281 115.977 22.0767 115.755 22.6168C115.533 23.1569 115.426 23.7717 115.426 24.4614C115.426 25.6496 115.73 26.5718 116.331 27.2199C116.933 27.868 117.756 28.1921 118.802 28.1921V28.2004Z" fill="#162F52"/>
<path d="M132.051 30.2693V29.2307C132.463 29.0064 132.891 28.8236 133.328 28.674C133.764 28.5244 134.25 28.3749 134.769 28.2419V11.9233L132.051 11.5909V10.5108C132.85 10.1784 133.707 9.88759 134.645 9.63832C135.576 9.38905 136.506 9.18133 137.445 9.01515H138.475V28.2419C139.026 28.3832 139.52 28.5244 139.957 28.674C140.393 28.8236 140.805 29.0147 141.192 29.2307V30.2693H132.051ZM133.987 2.45112C133.987 1.70332 134.225 1.10508 134.703 0.664712C135.181 0.22434 135.823 0 136.613 0C137.404 0 138.038 0.22434 138.507 0.664712C138.977 1.10508 139.207 1.70332 139.207 2.45112C139.207 3.19893 138.977 3.78886 138.507 4.21261C138.038 4.64467 137.412 4.8524 136.613 4.8524C135.815 4.8524 135.181 4.63636 134.703 4.21261C134.225 3.78055 133.987 3.19893 133.987 2.45112Z" fill="#162F52"/>
<path d="M159.992 27.3695C159.498 28.3416 158.699 29.1476 157.587 29.7957C156.476 30.4438 155.183 30.7678 153.7 30.7678C152.078 30.7678 150.678 30.5103 149.484 30.0034C148.29 29.4883 147.294 28.7571 146.503 27.8016C145.705 26.846 145.112 25.6994 144.716 24.3534C144.321 23.0073 144.124 21.52 144.124 19.8915C144.124 16.3768 144.972 13.6848 146.676 11.8152C148.373 9.94575 150.695 9.01515 153.635 9.01515C154.977 9.01515 156.179 9.13148 157.233 9.36413C158.287 9.59678 159.185 9.91251 159.926 10.2947C159.844 11.2087 159.695 12.2307 159.473 13.369C159.251 14.5073 158.979 15.4462 158.65 16.194H157.538L155.809 11.2502C155.619 11.109 155.397 11.0093 155.15 10.9345C154.903 10.868 154.491 10.8348 153.915 10.8348C152.045 10.8348 150.604 11.5161 149.591 12.8871C148.578 14.2581 148.068 16.5762 148.068 19.8416C148.068 20.8969 148.208 21.9189 148.496 22.9159C148.784 23.913 149.221 24.8021 149.814 25.5914C150.407 26.3807 151.148 27.0122 152.037 27.4775C152.926 27.9511 153.964 28.1838 155.142 28.1838C156.105 28.1838 156.937 28.0425 157.653 27.7683C158.37 27.4941 158.971 27.1618 159.465 26.7713L160 27.3529L159.992 27.3695Z" fill="#162F52"/>
</svg>
