<svg xmlns="http://www.w3.org/2000/svg" height="800" width="1200" viewBox="-18.912375 -5.98355 163.90725 35.9013"><g fill="#231f20"><path d="M5.393 7.9929c-.5659.872-.7746 1.9187-.7746 2.9654 0 2.4127 1.192 4.5978 3.7544 4.5978 2.4734 0 3.6947-2.0105 3.6947-4.3946 0-1.6859-.417-2.9943-1.2812-3.8082-.9534-.872-2.026-.901-2.6816-.8431-1.311.0875-2.0858.5235-2.7116 1.4827zm11.323 2.9937c0 3.933-2.2646 8.194-8.3432 8.194-4.38 0-8.3728-2.4434-8.3728-8.194C0 6.2188 3.0095 2.554 8.9688 2.8822c6.3467.3574 7.7472 5.2733 7.7472 8.1044m40.6817-6.3469c.447-.477.7451-.8343 1.5495-1.2216.715-.2981 1.7282-.5359 2.8306-.5359.924 0 1.9668.1485 2.7711.5955 1.639.864 2.0564 2.2645 2.0564 4.6778v10.6377h-4.559V10.033c0-1.4005-.03-1.9071-.2088-2.3241-.3577-.8343-1.162-1.192-2.0557-1.192-2.4137 0-2.4137 1.9367-2.4137 3.8735v8.4028h-4.5886V3.2692h4.6182v1.3705M46.0415 9.0248c-.0893-.6555-.2089-1.5198-.8643-2.2049-.5662-.5662-1.4302-.8643-2.2349-.8643-1.1024 0-1.8767.5366-2.3237 1.0132-.6258.6854-.775 1.4005-.924 2.056zM50.6 14.7754c-.4202.8855-1.7734 4.4051-7.747 4.4051-4.6186 0-7.8663-2.8257-7.8663-7.9209 0-3.7546 1.8475-8.3774 7.9855-8.3774.924 0 3.6054-.1147 5.6018 2.0306 2.026 2.1752 2.1452 5.2144 2.2048 6.9723H39.665c-.03 1.9367 1.0725 3.8738 3.5458 3.8738 2.503 0 3.367-1.639 3.9331-2.7414l3.4562 1.7579m63.8019-8.2836h3.0392V3.2692h-3.0095V0h-4.5586v3.2692h-.7232l-2.087 3.2226h2.8102v7.385c0 1.4895.0296 2.592.6551 3.5162.9836 1.4298 2.7118 1.5194 4.2912 1.5194.8343 0 1.4298-.0896 2.4133-.2385v-3.5754l-1.6386.0593c-1.2217 0-1.2217-.8043-1.192-1.7579V6.492M68.8884 0h4.5586v3.2692h4.7382l-2.0867 3.2226h-2.6811V13.4c-.03.9536-.03 1.7579 1.192 1.7579l1.639-.0593v3.5754c-.9839.149-1.5793.2385-2.4137.2385-1.5794 0-3.3076-.0896-4.2908-1.5194-.6258-.9243-.6555-2.0267-.6555-3.5161V0m57.1941 6.4922h-.5531l.0194-1.99.0289-.6604-.1556.5436-.66 2.1068h-.5052l-.6502-2.1068-.1651-.5341.0388.6509.0194 1.99h-.5436v-3.223h.767l.806 2.5435.786-2.5435h.7673zm-4.4178 0h-.563V3.7444h-1.0386v-.4752h2.6211v.4752h-1.0195v2.7478"/><path d="M88.25 9.0248c-.0897-.6555-.209-1.5198-.8644-2.2049-.5662-.5662-1.4301-.8643-2.2345-.8643-1.1024 0-1.8771.5366-2.324 1.0132-.6259.6854-.7748 1.4005-.924 2.056zm4.2989 5.7644l-.8731 1.3486c-.817 1.1988-2.3548 3.0427-6.7593 3.0427-4.6185 0-7.7212-2.8257-7.7212-7.9209 0-3.7546 1.8471-8.3774 7.9855-8.3774.9235 0 3.6054-.1147 5.6017 2.0306 2.0264 2.1752 2.1453 5.2144 2.2052 6.9723H81.8735c-.03 1.9367.9274 3.8738 3.4008 3.8738 2.5026 0 3.2215-1.639 3.7877-2.7414l3.4869 1.7717"/><path d="M108.1678 18.795l-5.6999-8.1722 4.7534-7.3536h-5.2176L99.76 6.7405l-2.4214-3.4713H92.121l5.1294 7.3536-5.2825 8.1721h5.2175l2.7732-4.2894 2.992 4.2894h5.2172M26.1307 6.464c-.8343 0-1.6983.333-2.3537 1.1648-.6558.8044-.9536 2.0521-.9536 3.411 0 1.8302.5366 2.9394 1.1024 3.5772.5292.5969 1.311.939 2.056.939 2.2349 0 3.218-2.3533 3.218-4.6273 0-1.9135-.5661-3.9377-2.4433-4.3815a2.43 2.43 0 00-.6258-.0833zM23.032 4.6396c.4389-.6667 1.846-1.7579 4.081-1.7579 3.8138 0 6.4967 2.8904 6.4967 8.0748 0 3.188-1.161 8.224-6.6883 8.224-1.9876 0-3.5292-1.1057-3.9194-1.7583v6.512h-4.5886V3.2691h4.6186v1.3705"/></g></svg>