<?xml version="1.0" encoding="utf-8"?>
<!-- Generator: Adobe Illustrator 21.0.2, SVG Export Plug-In . SVG Version: 6.00 Build 0)  -->
<svg version="1.1" id="Layer_1" xmlns="http://www.w3.org/2000/svg" xmlns:xlink="http://www.w3.org/1999/xlink" x="0px" y="0px"
	 viewBox="0 0 360 206" style="enable-background:new 0 0 360 206;" xml:space="preserve">
<g>
	<path d="M44.1,111.3c13.9-2.5,30.1-13.2,33.3-27c0.1-0.3,0-0.5-0.2-0.7c-0.2-0.2-0.5-0.2-0.7-0.2c-5.8,1.6-10.3,2.7-14.7,3.7
		c-2.3,0.5-4.5,1.1-7,1.7c-0.3,0.1-0.6,0.4-0.5,0.7c0.3,6.5-5.8,11.5-11.9,12.6c-3,0.5-5.7,0-7.6-1.4c-3-2.4-3.6-7.1-1.6-12.1
		c2.9-7.1,10.2-12.7,20.3-16c3.7-1.2,7.9-2.2,12.4-3c9.1-1.6,19.6-2.4,33.1-2.5c10.6-0.1,21.6,0.3,32.2,0.6
		c10.3,0.3,19.9,0.7,29,0.6c7.9-0.1,14.4-0.4,19.8-1.1c0.2,0,0.3-0.1,0.4-0.2c3.6-2.9,12.6-11,21.2-20.4c0.2-0.2,0.3-0.6,0.1-0.9
		c-0.2-0.3-0.5-0.4-0.8-0.3c-4.8,1.5-10.2,2.7-16.4,3.8c-18,3.2-39,4.3-61.3,5.4c-5.5,0.3-11.3,0.6-16.9,0.9
		c-10.7,0.6-22.8,1.4-34.6,3.5c-13.1,2.3-23.7,5.9-32.5,11.1c-8.5,5-18.3,14.7-19.6,24.4c-0.6,4.6,0.7,8.7,3.8,11.8
		c3.5,3.5,8.9,5.4,15.3,5.3l0,0c1.6,0,3.3-0.2,5-0.4L44.1,111.3z"/>
	<path d="M104,72.6c-0.1-0.2-0.4-0.3-0.6-0.3c0,0-0.1,0-0.1,0L87,76.7c-0.3,0.1-0.6,0.4-0.6,0.7c0,0.3,0.2,0.7,0.6,0.7
		c0.1,0,0.2,0.1,0.3,0.2c0.2,0.2,0.3,0.5,0.4,0.6c0.6,0.7,0.9,1.2,0.1,3.9l0,0.2c-4.6,10-8.2,17-12.2,25.1l0,0.1
		c-2.5,5-5.6,11.1-9.3,18.8c-2.9,5.9-4.5,8.8-9.2,17.2L56,146c-6.6,11.9-8.9,17-12,24c0,0.1,0,0.2,0.1,0.3c0,0,0.1,0,0.1,0
		c0.1,0,0.1,0,0.2-0.1c8.3-8,19.3-13.1,30.8-14.1c0.1,0,0.2-0.1,0.2-0.1c0-0.1,0-0.2,0-0.2c-4.6-6.3-0.9-18.8,4.1-28.5
		c1.2-2.4,2.3-4.4,2.9-5.8l21.8-48C104.2,73.1,104.1,72.8,104,72.6z"/>
	<path d="M340.2,21.8c-1.5-1.7-3.7-2.5-6.5-2.5c-0.9,0-1.9,0.1-3,0.3c-14,2.9-22.5,16-29.5,29.7l-1,0c-1.2,0-2.4-0.1-3.7-0.1
		C292.7,49,289,49,285.4,49c-8.9,0.1-16.6,0.7-23.7,2c-13.5,2.4-26.1,9.3-32.9,14.5c-0.3,0.2-0.4,0.6-0.2,0.9
		c0.2,0.3,0.5,0.5,0.9,0.3c1.8-0.7,3.5-1.1,5.3-1.4c3.6-0.6,12.2,0.7,14,5.7c0.1,0.2,0.3,0.4,0.5,0.5c0.3,0.1,0.5,0,0.7-0.2
		c4.9-5.5,14.6-11.9,22.4-13.3c5.7-1,12.1-1.5,18.3-1.5c1.7,0,3.4,0,5.1,0c0.6,0,1.1,0,1.7,0c-2.4,5.5-4.5,10.1-6.5,14.5
		c-2.4-3.8-6.1-5.8-10.7-5.8c-0.9,0-1.8,0.1-2.8,0.3c-11.7,2.1-24.2,15.9-27.9,30.7c-0.3,1-0.5,2.1-0.6,3.2
		c-3.1,6-13.7,16-22.6,17.6c-3,0.5-5.6,0.2-7.6-0.9c-1.5-0.9-2.5-3.3-3-5.3c13.2-3,22.8-12,27.4-19.4c3.1-4.9,2.8-7.8,2-11.2
		c-1-4.6-4.4-7-9.6-7c-0.9,0-1.9,0.1-3,0.3c-6.3,0.9-12.9,4.7-18.5,10.7c-5.2,5.5-9,12.4-10.6,18.9c-1,4.3-1.2,8.1-0.6,11.5
		c-4.2,4.4-11.7,10-18.9,11.3c-3,0.5-5.6,0.2-7.6-0.9c-1.5-0.9-2.4-2.2-2.9-4c13.2-3,22.8-12,27.4-19.4c3-4.8,4.3-9.6,3.6-12.9
		c-1-4.6-4.4-7-9.6-7c-0.9,0-1.9,0.1-3,0.3c-0.2,0-0.4,0.1-0.6,0.1c-5.3,0.9-10.9,4.1-16.2,9c-3.4,2.5-7,4.9-11.1,7.4
		c-0.1-5.1-1.7-7.7-3.1-9c-1.5-1.4-3.5-1.9-5.6-1.5c-3.3,0.6-6.4,3.3-7.7,6.8c-0.9,2.4-1.7,7.4,2.6,13.4
		c-7.4,13.8-20.3,25.3-24.4,27.8c-0.2,0.1-0.4,0.2-0.6,0.2c-0.7,0.1-1.4-0.2-1.8-0.8c-0.5-0.7-0.5-1.6-0.1-2.6l1.5-3.5
		c5-11.9,10.1-24.1,15.7-37.4c0.1-0.2,0.1-0.5-0.1-0.7c-0.2-0.2-0.4-0.3-0.7-0.3l-15.7,3.4c-0.1,0-0.1,0.1-0.2,0.1
		c0,0.1,0,0.1,0,0.2c0.4,0.8,0.5,4,0.1,5.4c-1.6,3.8-3.3,7.7-4.9,11.6c-2.9,6.8-5.8,13.7-8.7,20.6c-4.4,3-6.2,4.2-11.1,7
		c-0.3,0.2-0.6,0.3-0.8,0.3c-0.1,0-0.1,0-0.2,0c-0.2,0-0.4-0.1-0.5-0.2c-0.2-0.3-0.2-0.9,0.3-2l1.6-3.8
		c5.2-12.5,10.2-24.3,15.6-37.1c0.1-0.2,0.1-0.5-0.1-0.7c-0.2-0.2-0.4-0.3-0.7-0.3l-17.4,3.1c-0.3,0.1-0.6,0.4-0.6,0.7
		c0,0.3,0.2,0.6,0.5,0.7c0.8,0.2,1.3,0.6,1.7,1.2c0.4,0.9,0.4,2.1-0.1,3.4c-1.8,4.3-3.6,8.6-5.4,12.8l-0.4,1.1
		c-2.7,6.3-5.4,12.8-8.1,19.3c-1.8,4.8-1.5,9.1,0.6,11.8c1.6,2,4.2,2.9,7,2.4c1.5-0.3,3.1-0.9,4.6-1.9c4.5-3,8.9-6.2,12.6-9.2
		c0.5,1.7,1.4,3.1,2.8,4.2c2,1.5,4.8,2.1,7.7,1.6c1.3-0.2,2.7-0.7,4-1.3c7-2.5,24.4-16.8,37.7-36.1c0.4-0.3,0.8-0.6,1.3-0.9
		c-0.8,1.8-1.3,3.5-1.7,5.1c-1.9,8-1,14.4,2.7,18.5c2.7,3,6.7,4.5,11.7,4.5c1.4,0,2.9-0.2,4.4-0.4c1.3-0.2,2.6-0.5,3.9-0.9
		c7.9-2.4,16.5-8.1,21.5-14.2c0.2,0.3,0.5,0.6,0.7,0.9c3.3,3.7,8.4,5.8,13.5,5.8c1,0,2-0.1,3-0.3c1.3-0.2,2.6-0.5,3.9-0.9
		c8.7-2.7,17.7-10.6,22.3-17.3c0.6,3.1,1.8,5.6,3.6,7.6c2.3,2.6,5.6,3.9,9.3,3.9c0.9,0,1.8-0.1,2.7-0.3c3.9-0.7,8.1-2.8,12.1-6
		c1.4,1.8,3.5,2.8,6,2.7c0.6,0,1.1-0.1,1.7-0.2c1.6-0.3,3.3-0.9,4.9-1.9c1.1-0.7,2-1.3,2.8-1.8c3.3-2.1,4.5-2.8,6.6-4.8
		c1.5-0.8,3-0.6,3.9,0.5c1.1,1.3,1.2,3.5,0.4,6c-3,11-15.5,15.2-37.5,19.1c-1.4,0.2-2.8,0.5-4.1,0.7c-15.6,2.5-32.1,4.1-48,5.7
		l-0.1,0c-8.4,0.8-17.1,1.7-25.6,2.7c-18.8,2.1-38.3,4.3-54.7,7.2c-15.2,2.7-26.5,5.1-35.6,8.6c-0.1,0-0.2,0.1-0.2,0.2
		c0,0.1,0.1,0.2,0.2,0.2c9.8,3.6,18.3,10.1,24.3,18.7c0,0.1,0.1,0.1,0.2,0.1c0,0,0,0,0,0c0.1,0,0.1,0,0.2-0.1
		c11.1-11.5,64.4-21.9,86.8-25.8c5.8-1,11.6-2,18.1-3.1l0.6-0.1c5.4-0.9,10.8-1.8,15.9-2.7c14.2-2.5,23.2-4.3,30.3-6.1
		c8.9-2.2,18.1-4.9,25.5-10c0.2-0.1,17.1-12.4,10.7-25.4c-1.2-2.5-4.4-3.5-5.3-3.8c-1.4-0.4-3.1-0.4-4.9-0.1c-4,0.7-5.9,1.8-7.7,3.4
		c-0.7,0.4-1.5,0.4-1.7,0.2c-0.2-0.2-0.2-0.9,0.4-2c2.5-5.5,5.1-11.1,7.6-16.6l0.7-1.6c4-8.7,8.6-18.6,13-28.3
		c11.5-4.4,26.8-16.7,29.2-26C342.4,26.6,341.9,23.7,340.2,21.8z M331.3,29c-0.9,6.1-8.8,14-15.9,18c3.3-6.9,10.8-19.2,14.4-20.2
		l0.1,0c0.1,0,0.2,0,0.3,0c0.3,0,0.5,0.1,0.7,0.3C331.3,27.3,331.5,28.1,331.3,29z M285.1,84.3l-0.2,0.5c-2.7,5.9-5.5,11.9-8.1,17.6
		c0,0.1-0.1,0.2-0.1,0.3c-2.9,3.4-6.1,5.5-8.8,6c-2,0.4-3.6-0.1-4.7-1.4c-2-2.4-2-7.1-0.2-12.6c3-9,10.4-17,16.8-18.1
		c0.4-0.1,0.8-0.1,1.2-0.1c1.2,0,2.1,0.3,2.8,1C285.1,78.7,285.5,81.1,285.1,84.3z M217.2,100c1.9-6.5,7.1-13.8,13.6-15.5
		c0.3-0.1,0.7-0.1,1-0.1c0.1,0,0.1,0,0.2,0c0.7,0,1.1,0.4,1.4,0.7c0.3,0.4,0.3,0.9,0.3,1.1C231.4,94.1,222.1,98.9,217.2,100z
		 M174.2,112.7c1.1-3.4,3.5-8,6.3-11.8c3.5-4.8,7.1-7.8,10.1-8.6c0.3-0.1,0.7-0.1,1-0.1c0.1,0,0.1,0,0.2,0c0.5,0,0.9,0.2,1.2,0.5
		c0.3,0.4,0.5,1,0.4,1.4C193.1,101.6,179.8,111,174.2,112.7z"/>
</g>
</svg>
